<svg xmlns="http://www.w3.org/2000/svg" height="50" viewBox="0 0 55 10">
    <path d="M0 2 m1 0 h4 v1 h1 v3 h-1 v-2 h-3 v2 h3 v1 h1 v1 h-5 v-1 h-1 v-4 h1 Z" />
    <path d="M7 2 m1 0 h5 v7 h-1 v1 h-4 v-1 h-1 v-2 h1 v1 h3 v-1 h-3 v-1 h3 v-2 h-3 v2 h-1 v-3 h1 Z" />
    <path d="M14 2 h5 v1 h1 v5 h-2 v-3 h-1 v-1 h-2 v4 h-1 Z" />
    <path d="M21 2 m1 0 h4 v3 h1 v3 h-5 v-1 h2 v-3 h-2 v3 h-1 v-4 h1 Z" />
    <path d="M28 2 h1 v3 h1 v-2 h1 v1 h1 v-2 h2 v5 h-1 v1 h-4 v-1 h-1 Z" />
    <path d="M35 2 m1 0 h4 v3 h1 v3 h-5 v-1 h2 v-3 h-2 v3 h-1 v-4 h1 Z" />
    <path d="M42 2 m0 -2 h1 v2 h1 v2 h1 v-1 h1 v-1 h2 v2 h-1 v1 h-1 v1 h-1 v1 h-1 v1 h-2 Z m4 6 h2 v2 h-2 Z" />
    <path d="M49 2 m1 0 h4 v1 h1 v3 h-1 v-2 h-3 v2 h3 v1 h1 v1 h-5 v-1 h-1 v-4 h1 Z" />
</svg>